{"title":"Chris.Ryans.Elite.World.Cops.S01E04.Poland.PDTV.XviD","uid":4722535,"size":366735832,"categoryP":"video","categoryS":"tv_shows","magnet":"?xt=urn:btih:f3fd3ba37980ef0dfbff46adf33469ba372c0ff3&amp;dn=Chris.Ryans.Elite.World.Cops.S01E04.Poland.PDTV.XviD&amp;tr=udp%3A%2F%2Ftracker.openbittorrent.com%3A80&amp;tr=udp%3A%2F%2Fopen.demonii.com%3A1337&amp;tr=udp%3A%2F%2Ftracker.coppersurfer.tk%3A6969&amp;tr=udp%3A%2F%2Fexodus.desync.com%3A6969","seeders":1,"leechers":0,"uploader":"rokfelerr","files":-1,"time":1234594091,"description":"The author and former SAS soldier shadows the world's most remarkable police units as they confront crime on the frontline. He travels to Warsaw to meet members of Poland's elite BOA police unit, originally established as a counter-terrorism force in 2001 but now engaged in a battle to tame the organised crime networks that smuggle drugs, weapons and people across Europe. Ryan joins them as they seek to arrest a suspected arms dealer with links to the Russian mafia.\n\n\n:: ScreenShot ::  &lt;a href=&quot;\nhttp://bayimg.com/EanCEAaBJ&quot; rel=&quot;nofollow&quot; target=&quot;_NEW&quot;&gt;\nhttp://bayimg.com/EanCEAaBJ&lt;/a&gt;\n\n\nVideo\nFormat                           : MPEG-4 Visual\nCodec ID/Hint                    : XviD\nDuration                         : 43mn 17s\nBit rate                         : 991 Kbps\nWidth                            : 576 pixels\nHeight                           : 320 pixels\nDisplay aspect ratio             : 16/9\nFrame rate                       : 25.000 fps\nResolution                       : 24 bits\nColorimetry                      : 4:2:0\nScan type                        : Progressive\nBits/(Pixel*Frame)               : 0.215\nStream size                      : 307 MiB (88%)\nWriting library                  : XviD 1.0.3 (UTC 2004-12-20)\n\nAudio\nFormat                           : MPEG Audio\nFormat version                   : Version 1\nFormat profile                   : Layer 3\nCodec ID                         : 55\nCodec ID/Hint                    : MP3\nDuration                         : 43mn 17s\nBit rate mode                    : Variable\nBit rate                         : 126 Kbps\nNominal bit rate                 : 128 Kbps\nChannel(s)                       : 2 channels\nSampling rate                    : 48.0 KHz\nResolution                       : 16 bits\nStream size                      : 39.0 MiB (11%)\nAlignment                        : Aligned on interleaves\nInterleave, duration             : 24 ms (0.60 video frame)\nInterleave, preload duration     : 508 ms\nWriting library                  : LAME3.90.\nEncoding settings                : ABR","torrent":{"xt":"urn:btih:f3fd3ba37980ef0dfbff46adf33469ba372c0ff3","amp;dn":"Chris.Ryans.Elite.World.Cops.S01E04.Poland.PDTV.XviD","amp;tr":["udp%3A%2F%2Ftracker.openbittorrent.com%3A80","udp%3A%2F%2Fopen.demonii.com%3A1337","udp%3A%2F%2Ftracker.coppersurfer.tk%3A6969","udp%3A%2F%2Fexodus.desync.com%3A6969"],"infoHash":"f3fd3ba37980ef0dfbff46adf33469ba372c0ff3","infoHashBuffer":{"type":"Buffer","data":[243,253,59,163,121,128,239,13,251,255,70,173,243,52,105,186,55,44,15,243]},"announce":[],"urlList":[]}}